<?xml version="1.0" standalone="no"?>
<!DOCTYPE svg PUBLIC "-//W3C//DTD SVG 20010904//EN"
 "http://www.w3.org/TR/2001/REC-SVG-20010904/DTD/svg10.dtd">
<svg version="1.0" xmlns="http://www.w3.org/2000/svg"
 width="342.000000pt" height="342.000000pt" viewBox="0 0 342.000000 342.000000"
 preserveAspectRatio="xMidYMid meet">
<metadata>
Created by potrace 1.11, written by Peter Selinger 2001-2013
</metadata>
<g transform="translate(0.000000,342.000000) scale(0.100000,-0.100000)"
fill="#000000" stroke="none">
<path d="M1490 3313 c-93 -15 -114 -18 -147 -27 -33 -9 -61 -15 -80 -20 -23
-5 -111 -35 -143 -49 -14 -6 -27 -11 -30 -12 -33 -11 -146 -69 -152 -78 -4 -7
-8 -8 -8 -3 0 5 -7 2 -16 -5 -17 -14 -48 -33 -74 -45 -85 -41 -355 -290 -416
-384 -16 -25 -34 -49 -40 -55 -19 -17 -99 -156 -137 -239 -42 -88 -100 -246
-90 -246 3 0 1 -6 -5 -12 -6 -7 -10 -16 -10 -21 0 -4 -3 -20 -6 -35 -30 -134
-38 -208 -40 -357 -1 -143 1 -178 25 -305 6 -30 13 -68 15 -85 3 -16 8 -37 11
-45 6 -16 10 -29 17 -57 3 -10 5 -19 6 -20 2 -2 3 -6 4 -10 3 -17 50 -132 79
-193 116 -243 332 -490 564 -643 175 -115 393 -205 588 -243 22 -4 47 -9 55
-10 8 -2 69 -8 135 -13 142 -12 226 -7 427 24 206 32 546 191 710 333 84 72
175 164 226 227 31 39 60 72 63 75 27 24 149 238 182 320 30 75 76 210 71 210
-3 0 0 8 5 18 10 18 13 35 36 182 17 111 19 327 4 420 -6 36 -12 76 -14 90
-14 101 -78 295 -139 420 -37 74 -120 214 -140 236 -6 7 -20 25 -31 40 -34 48
-148 170 -220 234 -120 108 -287 208 -480 291 -23 9 -113 39 -135 44 -8 2 -30
9 -49 14 -19 6 -37 8 -42 6 -4 -3 -10 -1 -14 4 -3 5 -13 10 -23 10 -9 -1 -57
6 -107 14 -115 18 -325 18 -435 0z m234 -1260 c-1 -675 -2 -1234 -3 -1240 -1
-14 -59 -18 -76 -5 -7 4 -10 156 -10 439 1 397 0 433 -15 433 -24 0 -54 37
-56 68 -2 41 12 69 43 84 l28 13 1 114 c0 101 -2 115 -20 132 -11 11 -25 19
-31 19 -6 0 -27 26 -48 58 l-37 57 -107 1 c-60 1 -210 4 -334 7 l-226 6 -22
-30 -23 -31 35 -82 c69 -155 127 -297 127 -306 0 -6 5 -10 11 -10 5 0 8 -4 5
-9 -9 -14 20 -44 45 -48 33 -5 71 -34 89 -69 8 -16 16 -31 18 -34 1 -2 35 -5
75 -6 92 -2 87 -1 87 -19 0 -44 -120 -121 -226 -145 -27 -7 -58 -14 -69 -16
-62 -14 -126 -19 -265 -19 -155 0 -225 6 -289 25 -19 5 -37 7 -42 5 -4 -3 -10
-1 -14 5 -3 5 -14 10 -23 10 -32 0 -119 48 -156 85 -55 54 -46 69 39 71 85 2
85 2 83 12 -9 34 55 94 103 96 27 1 32 8 70 96 23 52 52 119 65 148 13 29 24
56 24 61 0 5 14 36 30 69 17 34 30 65 30 69 0 5 -10 23 -23 40 -32 43 -35 110
-6 146 26 34 69 57 107 57 36 0 93 -37 109 -71 11 -22 18 -25 60 -23 26 1 165
5 308 9 143 4 271 8 284 9 13 0 29 10 35 21 26 48 61 88 90 106 l31 19 1 242
c0 220 -1 244 -17 255 -34 25 -59 80 -60 130 -2 79 42 142 118 168 21 7 40 12
43 10 3 -2 4 -556 4 -1232z m216 1217 c87 -11 127 -18 155 -27 11 -4 23 -8 28
-9 4 -1 10 -3 15 -4 4 -1 12 -3 17 -4 6 -1 17 -5 25 -8 8 -3 44 -16 80 -29
299 -104 604 -350 782 -629 114 -178 200 -401 224 -575 3 -27 9 -54 11 -59 3
-4 8 -77 10 -161 l5 -153 -83 1 c-47 1 -85 6 -85 12 -7 48 -59 94 -109 98 -26
2 -33 13 -90 146 -35 79 -68 159 -75 177 -7 17 -23 54 -35 80 -22 47 -22 50
-5 69 45 51 52 101 20 153 -24 40 -71 61 -120 56 -26 -3 -45 -15 -75 -49 l-41
-45 -129 6 c-130 5 -370 12 -475 13 -55 1 -55 1 -79 47 -14 25 -43 59 -66 75
l-42 30 0 245 -1 245 24 15 c13 9 32 39 42 66 16 42 17 59 9 92 -13 51 -39 90
-77 113 -57 33 -39 35 140 13z m680 -1046 c0 -8 4 -14 9 -14 31 0 18 -51 -59
-232 -45 -105 -86 -204 -92 -219 -7 -19 -19 -31 -36 -35 -48 -10 -77 -31 -97
-71 -20 -40 -20 -40 -80 -41 -112 -1 -106 1 -95 -28 28 -71 150 -126 360 -161
58 -10 319 -10 390 0 142 20 272 69 325 123 l35 35 0 -33 c0 -40 -24 -179 -41
-240 -7 -23 -13 -47 -15 -53 -18 -80 -122 -302 -186 -400 l-33 -50 -590 -1
c-325 -1 -595 1 -601 3 -16 6 -15 873 1 873 23 0 54 34 59 64 8 43 -23 90 -59
91 -6 0 -10 49 -11 123 -1 113 0 123 18 133 39 21 76 60 93 100 l18 39 166 1
c188 0 484 9 489 14 8 8 32 -8 32 -21z m168 -229 c19 -44 36 -90 39 -102 3
-13 9 -23 13 -23 4 0 11 -12 14 -26 6 -24 36 -95 55 -134 5 -9 -1 -32 -13 -56
l-21 -40 -147 -1 -147 -1 -22 44 -21 45 21 52 c12 29 26 61 31 72 27 62 51
117 69 161 10 27 29 71 41 98 l23 50 15 -30 c9 -16 31 -65 50 -109z m-1587
-1257 c12 -7 31 -20 41 -29 16 -14 17 -18 4 -28 -11 -9 -22 -7 -51 14 -63 42
-163 30 -211 -27 -53 -62 -56 -172 -9 -235 48 -61 134 -81 205 -45 32 16 35
21 37 69 3 64 -6 70 -99 67 -59 -2 -68 0 -68 15 0 15 11 17 91 16 116 -2 120
-6 118 -127 -1 -89 -13 -114 -40 -82 -8 10 -15 11 -25 3 -7 -5 -38 -12 -69
-15 -126 -10 -220 78 -224 209 -3 127 94 222 220 213 31 -2 67 -10 80 -18z
m636 -19 c0 -13 1 -50 2 -82 l1 -58 30 22 c52 39 163 20 191 -33 69 -129 -36
-269 -166 -220 -22 9 -43 20 -46 25 -3 5 -9 -1 -12 -12 -3 -12 -12 -21 -19
-21 -13 0 -15 32 -13 198 1 108 3 201 4 205 3 19 26 -1 28 -24z m314 19 c1
-19 1 -327 0 -366 -1 -22 -5 -32 -13 -29 -10 3 -13 52 -14 198 -1 107 1 197 3
202 7 12 23 8 24 -5z m-453 -130 c14 -7 37 -29 50 -48 45 -66 17 -174 -53
-209 -59 -29 -140 -10 -178 40 -92 126 40 284 181 217z m724 -15 c45 -41 65
-122 31 -124 -10 -1 -64 -1 -120 0 -86 0 -103 -2 -103 -15 0 -51 61 -89 128
-80 25 3 51 11 59 18 20 16 43 -6 25 -24 -37 -37 -159 -37 -202 -1 -70 59 -66
179 8 231 48 35 133 32 174 -5z m-1099 9 c-4 -15 -1 -15 33 3 39 20 94 20 94
0 0 -8 -3 -15 -7 -16 -5 0 -21 -2 -37 -3 -33 -2 -75 -46 -77 -79 -1 -12 -2
-53 -3 -92 -1 -55 -4 -70 -17 -73 -14 -3 -16 14 -16 138 0 123 2 140 16 137 9
-2 15 -9 14 -15z"/>
<path d="M694 2083 c-9 -21 -21 -49 -27 -63 -5 -14 -11 -27 -12 -30 -4 -13
-27 -66 -49 -113 -13 -29 -27 -63 -31 -77 -4 -14 -16 -43 -27 -64 -17 -32 -18
-43 -8 -65 7 -14 12 -28 12 -31 -1 -20 32 -25 165 -25 140 0 148 1 151 20 2
11 11 28 19 37 19 21 18 26 -57 194 -12 25 -30 71 -42 102 -12 32 -27 66 -35
78 -7 11 -10 24 -6 27 3 4 1 7 -5 7 -7 0 -12 9 -12 20 0 32 -18 23 -36 -17z"/>
<path d="M1930 593 c-60 -17 -98 -70 -94 -131 3 -38 16 -58 55 -78 100 -51
197 53 145 154 -18 36 -74 64 -106 55z"/>
<path d="M1615 590 c-11 -4 -23 -6 -27 -4 -4 3 -19 -11 -34 -30 -41 -51 -40
-108 1 -152 69 -73 175 -26 177 78 1 66 -65 127 -117 108z"/>
<path d="M2313 589 c-13 -5 -23 -6 -23 -2 0 12 -42 -32 -56 -59 -17 -32 -27
-29 106 -31 69 0 86 2 88 15 3 16 -47 83 -56 74 -2 -3 -12 -1 -21 3 -9 5 -26
5 -38 0z"/>
</g>
</svg>
